<svg width="51" height="51" viewBox="0 0 51 51" fill="none" xmlns="http://www.w3.org/2000/svg">
<path d="M31.6459 11.9792C33.4581 12.3327 35.257 13.1319 36.5626 14.4375C37.8682 15.7431 38.6674 17.542 39.0209 19.3542M32.8751 3.375C36.6401 3.79326 40.0281 5.61471 42.7084 8.29167C45.3888 10.9686 47.2021 14.3605 47.6251 18.125M47.6238 36.5051V43.1666C47.6341 45.7131 45.3444 47.8395 42.7735 47.6077C20.5836 47.625 3.37524 30.2568 3.39261 8.21591C3.16106 5.65866 5.27695 3.37761 7.82018 3.37522H14.4949C15.5747 3.36461 16.6214 3.74621 17.4401 4.4489C19.7677 6.44667 21.2649 13.2274 20.6888 15.923C20.2391 18.0276 18.1176 19.4999 16.6753 20.9394C19.8426 26.4985 24.4546 31.1014 30.0247 34.2624C31.4671 32.823 32.9424 30.7057 35.0511 30.2568C37.7562 29.6811 44.5806 31.1803 46.5703 33.5241C47.2759 34.3552 47.6508 35.4161 47.6238 36.5051Z" stroke="#C0B7E8" stroke-width="6" stroke-linecap="round" stroke-linejoin="round"/>
</svg>
