<svg width="103" height="103" viewBox="0 0 103 103" fill="none" xmlns="http://www.w3.org/2000/svg">
<path d="M101.77 41.2876C103.119 49.011 94.8415 46.9538 94.8415 46.9538C91.3775 37.2816 85.8351 38.1838 85.8351 38.1838C90.1742 41.3237 90.5024 43.9944 90.5024 43.9944C78.9435 35.8741 63.2277 42.4064 57.2477 45.4741C53.8931 40.7824 47.1109 30.28 49.5175 25.5161C52.6898 19.2725 59.1438 22.8454 59.1438 22.8454C72.1977 22.6289 71.4685 18.0093 71.4685 18.0093C68.0044 20.68 57.7947 18.0093 57.7947 18.0093C66.6553 18.0093 70.411 14.4363 70.411 14.4363C63.8111 16.0604 56.4455 9.09495 56.4455 9.09495C53.7472 -4.58333 41.2767 1.22723 41.2767 1.22723C49.0799 -0.108116 47.0015 8.08441 47.0015 8.08441C37.2293 11.513 38.1409 16.9988 38.1409 16.9988C41.3132 12.704 44.0115 12.3792 44.0115 12.3792C35.078 24.8304 43.6833 42.1538 46.2358 46.6651C41.5685 49.8771 30.6294 56.9509 25.7069 54.4967C19.3987 51.3569 23.0086 44.9688 23.0086 44.9688C22.8627 32.0485 18.1954 32.7703 18.1954 32.7703C20.8937 36.1989 18.1954 46.3042 18.1954 46.3042C18.1954 37.5342 14.5855 33.8169 14.5855 33.8169C16.2264 40.3493 9.18893 47.6395 9.18893 47.6395C-4.63071 50.3102 1.2399 62.6532 1.2399 62.6532C-0.109246 54.9298 8.16795 56.987 8.16795 56.987C11.632 66.6592 17.1744 65.7569 17.1744 65.7569C12.8353 62.6171 12.5071 59.9464 12.5071 59.9464C24.7223 68.5359 41.6049 60.7404 46.7098 57.9975C50.1374 62.8697 56.5185 72.9029 54.1483 77.5585C50.976 83.8022 44.522 80.2292 44.522 80.2292C31.4681 80.3736 32.1974 84.9932 32.1974 84.9932C35.6614 82.3225 45.8711 84.9932 45.8711 84.9932C37.0105 84.9932 33.2548 88.5661 33.2548 88.5661C39.8547 86.942 47.2203 93.9075 47.2203 93.9075C49.9186 107.586 62.3891 101.775 62.3891 101.775C54.5859 103.111 56.6643 94.918 56.6643 94.918C66.4365 91.4894 65.5249 86.0037 65.5249 86.0037C62.3526 90.2984 59.6543 90.6233 59.6543 90.6233C68.4055 78.4608 60.3471 61.6065 57.6124 56.6622C62.5714 53.2336 72.5988 47.0982 77.2297 49.408C83.5379 52.5478 79.928 58.9359 79.928 58.9359C80.0738 71.8562 84.7412 71.1344 84.7412 71.1344C82.0429 67.7058 84.7412 57.6005 84.7412 57.6005C84.7412 66.3705 88.351 70.0878 88.351 70.0878C86.7102 63.5554 93.7476 56.2652 93.7476 56.2652C107.64 53.6306 101.77 41.2876 101.77 41.2876Z" fill="url(#paint0_linear_1_19)"/>
<defs>
<linearGradient id="paint0_linear_1_19" x1="51.5012" y1="0.0012207" x2="51.5012" y2="103.001" gradientUnits="userSpaceOnUse">
<stop stop-color="#C0B7E8"/>
<stop offset="1" stop-color="#8176AF"/>
</linearGradient>
</defs>
</svg>
